<svg width="21" height="14" viewBox="0 0 21 14" fill="none" xmlns="http://www.w3.org/2000/svg">
<path d="M5.80153 0.385767C6.70346 -0.324081 7.83501 0.16158 7.91615 1.27506C7.96757 1.98014 8.01577 2.88008 8.04809 4.00956C8.08695 4.0046 8.12658 4.00207 8.16688 4.00212C12.8995 4.00624 16.7478 4.19125 18.6081 4.30016C19.3386 4.34293 19.9372 4.82651 19.9895 5.52394C20.0099 5.79615 20.0242 6.12031 20.0257 6.49993C20.0272 6.87954 20.0155 7.20376 19.9973 7.47617C19.9505 8.17395 19.3558 8.66233 18.6256 8.71091C16.7663 8.83464 12.9196 9.05026 8.18716 9.09212C8.1469 9.09245 8.10721 9.09023 8.0683 9.08559C8.04503 10.2152 8.004 11.1154 7.95824 11.8209C7.88593 12.9352 6.75784 13.4299 5.85011 12.7271C5.23844 12.2535 4.45988 11.6171 3.48997 10.768C1.77945 9.2706 0.826226 8.14756 0.316162 7.44346C-0.068433 6.91254 -0.0710361 6.24799 0.309361 5.71406C0.813802 5.00601 1.75805 3.87545 3.4565 2.36431C4.41992 1.50707 5.19356 0.864303 5.80153 0.385767Z" fill="#F5A71E"/>
</svg>
