<svg width="21" height="14" viewBox="0 0 21 14" fill="none" xmlns="http://www.w3.org/2000/svg">
<path d="M14.2027 12.847C13.2892 13.5419 12.1658 13.0377 12.1031 11.923C12.0632 11.2172 12.0299 10.3166 12.0162 9.18673C11.9772 9.19104 11.9375 9.19292 11.8972 9.19221C7.16537 9.11017 3.32063 8.86183 1.46237 8.72231C0.732656 8.66751 0.142134 8.17414 0.101284 7.47595C0.08534 7.20343 0.0763941 6.87908 0.0811322 6.4995C0.0858704 6.11991 0.102909 5.79593 0.125651 5.52385C0.183915 4.82694 0.786569 4.34842 1.51743 4.31186C3.37859 4.21876 7.22833 4.06651 11.9608 4.10257C12.001 4.1029 12.0407 4.10577 12.0795 4.11106C12.1214 2.98203 12.1772 2.08261 12.2346 1.37795C12.3252 0.264968 13.4613 -0.211133 14.3574 0.506556C14.9611 0.990181 15.7291 1.63933 16.6849 2.50425C18.3706 4.02961 19.3052 5.16819 19.8036 5.88059C20.1794 6.41777 20.171 7.08228 19.7819 7.60987C19.2659 8.30952 18.3031 9.42438 16.58 10.9074C15.6026 11.7486 14.8185 12.3786 14.2027 12.847Z" fill="#F5A71E"/>
</svg>
