<svg width="25" height="26" viewBox="0 0 25 26" fill="none" xmlns="http://www.w3.org/2000/svg">
<path d="M0.892822 24.1841H20.5357" stroke="#000001" stroke-width="2.31353" stroke-linecap="round" stroke-linejoin="round"/>
<path d="M11.6071 17.9341L6.25 18.8983L7.14286 13.4698L19.1607 1.48762C19.3267 1.32025 19.5242 1.1874 19.7418 1.09675C19.9594 1.00609 20.1928 0.959412 20.4286 0.959412C20.6643 0.959412 20.8977 1.00609 21.1153 1.09675C21.3329 1.1874 21.5304 1.32025 21.6964 1.48762L23.5893 3.38048C23.7567 3.54649 23.8895 3.74399 23.9802 3.96159C24.0708 4.1792 24.1175 4.4126 24.1175 4.64834C24.1175 4.88407 24.0708 5.11748 23.9802 5.33508C23.8895 5.55269 23.7567 5.75019 23.5893 5.91619L11.6071 17.9341Z" stroke="#000001" stroke-width="2.31353" stroke-linecap="round" stroke-linejoin="round"/>
</svg>
