<svg width="25" height="26" viewBox="0 0 25 26" fill="none" xmlns="http://www.w3.org/2000/svg">
<path d="M23.5536 5.52332C23.9036 5.16902 24.0999 4.69102 24.0999 4.19296C24.0999 3.6949 23.9036 3.2169 23.5536 2.8626L22.2143 1.52332C21.8644 1.19952 21.4053 1.01965 20.9286 1.01965C20.4519 1.01965 19.9927 1.19952 19.6429 1.52332L12.5 8.57689L5.44644 1.52332C5.09214 1.17326 4.61415 0.976959 4.11609 0.976959C3.61802 0.976959 3.14003 1.17326 2.78573 1.52332L1.44644 2.8626C1.09639 3.2169 0.900085 3.6949 0.900085 4.19296C0.900085 4.69102 1.09639 5.16902 1.44644 5.52332L8.5893 12.6662L1.44644 19.7197C1.09639 20.074 0.900085 20.552 0.900085 21.0501C0.900085 21.5482 1.09639 22.0262 1.44644 22.3805L2.78573 23.7197C3.14003 24.0698 3.61802 24.2661 4.11609 24.2661C4.61415 24.2661 5.09214 24.0698 5.44644 23.7197L12.5 16.5769L19.6429 23.6305C19.9972 23.9805 20.4752 24.1768 20.9732 24.1768C21.4713 24.1768 21.9493 23.9805 22.3036 23.6305L23.6429 22.2912C23.9929 21.9369 24.1892 21.4589 24.1892 20.9608C24.1892 20.4628 23.9929 19.9848 23.6429 19.6305L16.5 12.5769L23.5536 5.52332Z" stroke="#000001" stroke-width="2" stroke-linecap="round" stroke-linejoin="round"/>
</svg>
