<svg width="18" height="18" viewBox="0 0 18 18" fill="none" xmlns="http://www.w3.org/2000/svg">
<path d="M12.3999 11H11.6415L11.3727 10.73C12.3135 9.59 12.8799 8.11 12.8799 6.5C12.8799 2.91 10.0863 0 6.6399 0C3.1935 0 0.399902 2.91 0.399902 6.5C0.399902 10.09 3.1935 13 6.6399 13C8.1855 13 9.6063 12.41 10.7007 11.43L10.9599 11.71V12.5L15.7599 17.49L17.1903 16L12.3999 11ZM6.6399 11C4.2495 11 2.3199 8.99 2.3199 6.5C2.3199 4.01 4.2495 2 6.6399 2C9.0303 2 10.9599 4.01 10.9599 6.5C10.9599 8.99 9.0303 11 6.6399 11Z" fill="#000001"/>
</svg>
