<svg xmlns="http://www.w3.org/2000/svg" fill="none" viewBox="0 0 50 50" id="Module-Three--Streamline-Nova" height="50"
    width="50">
    <desc>Module Three Streamline Icon: https://streamlinehq.com/</desc>
    <path fill="#000000" fill-rule="evenodd"
        d="M15.645354166666667 0c-1.1506041666666667 0 -2.0833333333333335 0.9327395833333334 -2.0833333333333335 2.0833333333333335v18.75c0 1.150625 0.9327291666666667 2.0833333333333335 2.0833333333333335 2.0833333333333335h18.750062500000002c1.1504166666666669 0 2.0833333333333335 -0.9327083333333334 2.0833333333333335 -2.0833333333333335V2.0833333333333335c0 -1.15059375 -0.9329166666666667 -2.0833333333333335 -2.0833333333333335 -2.0833333333333335H15.645354166666667Zm2.0833333333333335 18.75V4.166666666666667h14.583395833333334v14.583333333333334H17.7286875ZM0 29.166666666666668c0 -1.150625 0.9327395833333334 -2.0833333333333335 2.0833333333333335 -2.0833333333333335h18.75c1.150625 0 2.0833333333333335 0.9327083333333334 2.0833333333333335 2.0833333333333335v18.75c0 1.150625 -0.9327083333333334 2.0833333333333335 -2.0833333333333335 2.0833333333333335H2.0833333333333335c-1.15059375 0 -2.0833333333333335 -0.9327083333333334 -2.0833333333333335 -2.0833333333333335v-18.75Zm4.166666666666667 2.0833333333333335v14.583333333333334h14.583333333333334v-14.583333333333334H4.166666666666667Zm22.916666666666668 -2.0833333333333335c0 -1.150625 0.9327083333333334 -2.0833333333333335 2.0833333333333335 -2.0833333333333335h18.75c1.150625 0 2.0833333333333335 0.9327083333333334 2.0833333333333335 2.0833333333333335v18.75c0 1.150625 -0.9327083333333334 2.0833333333333335 -2.0833333333333335 2.0833333333333335h-18.75c-1.150625 0 -2.0833333333333335 -0.9327083333333334 -2.0833333333333335 -2.0833333333333335v-18.75Zm4.166666666666667 2.0833333333333335v14.583333333333334h14.583333333333334v-14.583333333333334h-14.583333333333334Z"
        clip-rule="evenodd" stroke-width="1"></path>
</svg>