<svg width="46" height="54" viewBox="0 0 46 54" fill="none" xmlns="http://www.w3.org/2000/svg">
<path fill-rule="evenodd" clip-rule="evenodd" d="M9.82634 0.63393C14.0886 0.306185 18.2077 0.134329 23.3032 0.134329C24.9293 0.134329 26.4569 0.151828 27.9223 0.18638C29.911 0.233267 31.8504 0.957454 33.3971 2.29471C37.3244 5.69 39.9094 8.62779 42.8005 12.8472C44.6048 15.4809 45.5239 18.6143 45.5767 21.7841C45.6054 23.5092 45.6199 25.2483 45.6199 27C45.6199 33.0462 45.4465 38.9433 45.1166 44.6273C44.8466 49.2816 41.293 53.019 36.7802 53.366C32.5178 53.6937 28.3987 53.8657 23.3032 53.8657C18.2077 53.8657 14.0886 53.6937 9.82634 53.366C5.31351 53.019 1.75981 49.2816 1.48981 44.6273C1.16008 38.9433 0.986572 33.0462 0.986572 27C0.986572 20.9538 1.16008 15.0565 1.48981 9.37263C1.75981 4.7183 5.31351 0.980943 9.82634 0.63393ZM16.9631 19.5939C19.5308 19.5939 21.6124 17.4461 21.6124 14.7965C21.6124 12.147 19.5308 9.99906 16.9631 9.99906C14.3953 9.99906 12.3138 12.147 12.3138 14.7965C12.3138 17.4461 14.3953 19.5939 16.9631 19.5939ZM9.67303 25.0043C11.0667 22.7348 13.7067 21.2656 16.9645 21.2656C20.2224 21.2656 22.8624 22.7348 24.256 25.0043C24.6054 25.5733 24.1623 26.251 23.5095 26.251H10.4196C9.76672 26.251 9.32362 25.5733 9.67303 25.0043ZM8.13032 34.7045C8.13032 33.3797 9.17109 32.3058 10.455 32.3058H32.6369C33.9208 32.3058 34.9614 33.3797 34.9614 34.7045C34.9614 36.0293 33.9208 37.1033 32.6369 37.1033H10.455C9.17109 37.1033 8.13032 36.0293 8.13032 34.7045ZM8.12942 42.8765C8.12942 41.5516 9.1702 40.4777 10.4541 40.4777H28.9166C30.2004 40.4777 31.2412 41.5516 31.2412 42.8765C31.2412 44.2013 30.2004 45.2752 28.9166 45.2752H10.4541C9.1702 45.2752 8.12942 44.2013 8.12942 42.8765Z" fill="white"/>
</svg>
